<!-- <svg t="1598001627567" class="icon" viewBox="0 0 1024 1024" version="1.1" xmlns="http://www.w3.org/2000/svg" p-id="20280" width="81" height="81"><path d="M512 512m-448 0a448 448 0 1 0 896 0 448 448 0 1 0-896 0Z" fill="#D93934" p-id="20281"></path><path d="M601.6 512l89.6-89.6c25.6-25.6 25.6-64 0-89.6s-64-25.6-89.6 0L512 422.4l-89.6-89.6c-25.6-25.6-64-25.6-89.6 0s-25.6 64 0 89.6l89.6 89.6-89.6 89.6c-25.6 25.6-25.6 64 0 89.6 25.6 25.6 64 25.6 89.6 0l89.6-89.6 89.6 89.6c25.6 25.6 64 25.6 89.6 0 25.6-25.6 25.6-64 0-89.6L601.6 512z" fill="#FFFFFF" p-id="20282"></path></svg> -->
<svg t="1598001721267" class="icon" viewBox="0 0 1024 1024" version="1.1" xmlns="http://www.w3.org/2000/svg" p-id="33586" width="81" height="81"><path d="M988.598857 0.877714H222.354286a34.157714 34.157714 0 0 0-33.938286 34.230857v153.234286h79.945143V83.602286h672.621714v672.621714H836.022857v79.872h152.502857a35.401143 35.401143 0 0 0 34.962286-34.816V35.108571a34.889143 34.889143 0 0 0-34.962286-34.157714z" fill="#2D3F49" p-id="33587"></path><path d="M758.491429 265.289143v680.374857H78.189714V265.289143h680.448z m44.178285-77.238857H33.938286a33.060571 33.060571 0 0 0-33.060572 33.133714v768.585143c0 18.285714 14.848 33.060571 33.133715 33.060571h768.658285c18.285714 0 33.060571-14.774857 33.060572-33.060571V221.184a33.060571 33.060571 0 0 0-33.060572-33.133714z" fill="#2D3F49" p-id="33588"></path><path d="M215.04 765.878857l370.322286-370.322286 42.861714 42.861715-370.322286 370.322285-42.861714-42.861714z" fill="#2D3F49" p-id="33589"></path><path d="M585.362286 808.740571L215.04 438.418286l42.861714-42.861715 370.322286 370.322286z" fill="#2D3F49" p-id="33590"></path></svg>